<?xml version="1.0" encoding="UTF-8"?>
<!DOCTYPE svg PUBLIC "-//W3C//DTD SVG 1.1//EN" "http://www.w3.org/Graphics/SVG/1.1/DTD/svg11.dtd">
<svg version="1.1" xmlns="http://www.w3.org/2000/svg" xmlns:xlink="http://www.w3.org/1999/xlink" x="0" y="0" width="1024" height="1024" viewBox="0, 0, 1024, 1024">
  <g id="Layer_1">
    <path d="M1024,0 L1024,1024 L0,1024 L0,0 L1024,0 z M680.124,670 Q654.576,670 638.288,688.111 Q622,706.222 622,736 Q622,765.691 638.288,783.846 Q654.576,802 680.124,802 Q705.589,802 721.795,783.889 Q738,765.778 738,736 Q738,706.222 721.795,688.111 Q705.589,670 680.124,670 z M680.289,684.454 Q698.231,684.454 709.806,698.037 Q721.381,711.62 721.381,736 Q721.381,760.38 709.765,773.963 Q698.148,787.546 679.959,787.546 Q661.934,787.546 650.276,773.919 Q638.619,760.293 638.619,736 Q638.619,711.62 650.318,698.037 Q662.017,684.454 680.289,684.454 z M224.124,670 Q198.576,670 182.288,688.111 Q166,706.222 166,736 Q166,765.691 182.288,783.846 Q198.576,802 224.124,802 Q249.589,802 265.795,783.889 Q282,765.778 282,736 Q282,706.222 265.795,688.111 Q249.589,670 224.124,670 z M224.289,684.454 Q242.231,684.454 253.806,698.037 Q265.381,711.62 265.381,736 Q265.381,760.38 253.765,773.963 Q242.148,787.546 223.959,787.546 Q205.934,787.546 194.277,773.919 Q182.619,760.293 182.619,736 Q182.619,711.62 194.318,698.037 Q206.017,684.454 224.289,684.454 z M444.832,672 L408,672 L408,800 L444.832,800 Q504,800 504,735.301 Q504,672 444.832,672 z M444.515,687.192 Q469.861,687.192 479.01,699.765 Q488.158,712.338 488.158,735.301 Q488.158,758.876 478.97,771.842 Q469.782,784.808 444.515,784.808 L423.366,784.808 L423.366,687.192 L444.515,687.192 z M346.985,672 L296,672 L296,800 L311.241,800 L311.241,745.255 L339.444,745.255 Q348.242,745.255 354.998,751.018 Q361.755,756.78 364.661,765.861 L375.502,800 L392,800 L380.452,765.162 Q374.167,746.303 362.147,742.024 L362.147,741.675 Q374.167,738.969 381.08,730.063 Q387.993,721.157 387.993,707.885 Q387.993,696.273 382.651,687.018 Q377.309,677.763 368.825,674.881 Q360.34,672 346.985,672 z M347.614,686.057 Q372.282,686.057 372.281,707.885 Q372.282,720.109 365.879,725.086 Q359.476,730.063 345.257,730.063 L311.241,730.063 L311.241,686.057 L347.614,686.057 z M561.912,672 L520,672 L520,800 L564.08,800 Q585.518,800 596.759,790.396 Q608,780.791 608,762.805 Q608,752.065 602.339,743.64 Q596.679,735.214 585.277,732.071 Q602.219,723.165 602.219,704.655 Q602.219,689.462 591.46,680.731 Q580.701,672 561.912,672 z M561.912,740.802 Q578.934,740.802 585.398,746.084 Q591.861,751.367 591.861,762.805 Q591.861,784.808 563.92,784.808 L535.577,784.808 L535.577,740.802 L561.912,740.802 z M560.307,687.192 Q575,687.192 580.942,691.951 Q586.883,696.709 586.883,706.139 Q586.883,716.617 580.781,721.113 Q574.679,725.61 561.752,725.61 L535.577,725.61 L535.577,687.192 L560.307,687.192 z M767.546,672 L752,672 L752,800 L767.546,800 L767.546,755.645 L785.816,736.175 L827.486,800 L848,800 L796.634,724.562 L845.836,672 L824.841,672 L767.546,735.476 L767.546,672 z M336.393,216 Q255.344,216 203.672,270.881 Q152,325.763 152,416 Q152,505.974 203.672,560.987 Q255.344,616 336.393,616 Q417.18,616 468.59,561.119 Q520,506.237 520,416 Q520,325.763 468.59,270.881 Q417.18,216 336.393,216 z M336.918,259.799 Q393.836,259.799 430.557,300.96 Q467.279,342.121 467.279,416 Q467.279,489.879 430.426,531.039 Q393.574,572.201 335.869,572.201 Q278.689,572.201 241.705,530.908 Q204.721,489.615 204.721,416 Q204.721,342.121 241.836,300.96 Q278.951,259.799 336.918,259.799 z M713.168,225 L576,225 L576,608 L720.263,608 Q790.423,608 827.212,579.262 Q864,550.524 864,496.705 Q864,464.571 845.474,439.36 Q826.949,414.149 789.635,404.743 Q845.08,378.095 845.08,322.709 Q845.08,277.251 809.869,251.126 Q774.657,225 713.168,225 z M713.168,430.869 Q768.876,430.869 790.029,446.675 Q811.182,462.481 811.182,496.705 Q811.182,562.542 719.737,562.542 L626.978,562.542 L626.978,430.869 L713.168,430.869 z M707.912,270.458 Q756,270.458 775.445,284.697 Q794.891,298.935 794.891,327.151 Q794.891,358.501 774.92,371.956 Q754.949,385.411 712.642,385.411 L626.978,385.411 L626.978,270.458 L707.912,270.458 z" fill="#000000"/>
  </g>
</svg>
