<?xml version="1.0" encoding="UTF-8"?>
<!DOCTYPE svg PUBLIC "-//W3C//DTD SVG 1.1//EN" "http://www.w3.org/Graphics/SVG/1.1/DTD/svg11.dtd">
<svg version="1.1" xmlns="http://www.w3.org/2000/svg" xmlns:xlink="http://www.w3.org/1999/xlink" x="0" y="0" width="1024" height="1024" viewBox="0, 0, 1024, 1024">
  <g id="Layer_1">
    <path d="M0,0 L1024,0 L1024,1024 L0,1024 L0,0 z" fill="#666666"/>
    <g>
      <path d="M336.393,216 Q417.18,216 468.59,270.881 Q520,325.763 520,416 Q520,506.237 468.59,561.119 Q417.18,616 336.393,616 Q255.344,616 203.672,560.987 Q152,505.974 152,416 Q152,325.763 203.672,270.881 Q255.344,216 336.393,216 z M335.869,572.201 Q393.574,572.201 430.426,531.04 Q467.279,489.879 467.279,416 Q467.279,342.121 430.557,300.96 Q393.836,259.799 336.918,259.799 Q278.951,259.799 241.836,300.96 Q204.721,342.121 204.721,416 Q204.721,489.615 241.705,530.908 Q278.689,572.201 335.869,572.201 z" fill="#FFFFFF"/>
      <path d="M864,496.705 Q864,550.524 827.212,579.262 Q790.423,608 720.263,608 L576,608 L576,225 L713.168,225 Q774.657,225 809.869,251.126 Q845.08,277.251 845.08,322.709 Q845.08,378.095 789.635,404.744 Q826.949,414.149 845.474,439.36 Q864,464.571 864,496.705 z M626.978,385.411 L712.642,385.411 Q754.949,385.411 774.92,371.956 Q794.891,358.501 794.891,327.151 Q794.891,298.935 775.445,284.697 Q756,270.458 707.912,270.458 L626.978,270.458 z M626.978,562.542 L719.737,562.542 Q811.182,562.542 811.182,496.705 Q811.182,462.481 790.029,446.675 Q768.876,430.869 713.168,430.869 L626.978,430.869 z" fill="#FFFFFF"/>
    </g>
    <g>
      <path d="M224.124,670 Q249.589,670 265.795,688.111 Q282,706.222 282,736 Q282,765.778 265.795,783.889 Q249.589,802 224.124,802 Q198.576,802 182.288,783.846 Q166,765.691 166,736 Q166,706.222 182.288,688.111 Q198.576,670 224.124,670 z M223.959,787.546 Q242.148,787.546 253.765,773.963 Q265.381,760.38 265.381,736 Q265.381,711.62 253.806,698.037 Q242.231,684.454 224.289,684.454 Q206.017,684.454 194.318,698.037 Q182.619,711.62 182.619,736 Q182.619,760.293 194.277,773.92 Q205.934,787.546 223.959,787.546 z" fill="#FFFFFF"/>
      <path d="M392,800 L375.502,800 L364.661,765.861 Q361.755,756.78 354.998,751.018 Q348.242,745.255 339.444,745.255 L311.241,745.255 L311.241,800 L296,800 L296,672 L346.985,672 Q360.34,672 368.825,674.881 Q377.309,677.763 382.651,687.018 Q387.993,696.273 387.993,707.885 Q387.993,721.157 381.08,730.063 Q374.167,738.969 362.147,741.675 L362.147,742.025 Q374.167,746.303 380.452,765.162 z M311.241,730.063 L345.257,730.063 Q359.476,730.063 365.879,725.086 Q372.282,720.109 372.282,707.885 Q372.282,686.057 347.614,686.057 L311.241,686.057 z" fill="#FFFFFF"/>
      <path d="M408,672 L444.832,672 Q504,672 504,735.302 Q504,800 444.832,800 L408,800 z M423.366,784.808 L444.515,784.808 Q469.782,784.808 478.97,771.842 Q488.158,758.876 488.158,735.302 Q488.158,712.338 479.01,699.765 Q469.861,687.192 444.515,687.192 L423.366,687.192 z" fill="#FFFFFF"/>
      <path d="M608,762.805 Q608,780.791 596.759,790.396 Q585.518,800 564.08,800 L520,800 L520,672 L561.912,672 Q580.701,672 591.46,680.731 Q602.219,689.462 602.219,704.655 Q602.219,723.165 585.277,732.071 Q596.679,735.214 602.339,743.64 Q608,752.065 608,762.805 z M535.577,725.61 L561.752,725.61 Q574.679,725.61 580.781,721.113 Q586.883,716.617 586.883,706.139 Q586.883,696.709 580.942,691.951 Q575,687.192 560.307,687.192 L535.577,687.192 z M535.577,784.808 L563.92,784.808 Q591.861,784.808 591.861,762.805 Q591.861,751.367 585.398,746.085 Q578.934,740.802 561.912,740.802 L535.577,740.802 z" fill="#FFFFFF"/>
      <path d="M680.124,670 Q705.589,670 721.795,688.111 Q738,706.222 738,736 Q738,765.778 721.795,783.889 Q705.589,802 680.124,802 Q654.576,802 638.288,783.846 Q622,765.691 622,736 Q622,706.222 638.288,688.111 Q654.576,670 680.124,670 z M679.959,787.546 Q698.148,787.546 709.765,773.963 Q721.381,760.38 721.381,736 Q721.381,711.62 709.806,698.037 Q698.231,684.454 680.289,684.454 Q662.017,684.454 650.318,698.037 Q638.619,711.62 638.619,736 Q638.619,760.293 650.277,773.92 Q661.934,787.546 679.959,787.546 z" fill="#FFFFFF"/>
      <path d="M848,800 L827.486,800 L785.816,736.175 L767.546,755.645 L767.546,800 L752,800 L752,672 L767.546,672 L767.546,735.476 L824.841,672 L845.836,672 L796.634,724.562 z" fill="#FFFFFF"/>
    </g>
  </g>
</svg>
